<?xml version="1.0" encoding="UTF-8" standalone="no"?>
<!DOCTYPE svg PUBLIC "-//W3C//DTD SVG 1.1//EN"
 "http://www.w3.org/Graphics/SVG/1.1/DTD/svg11.dtd">
<!-- Generated by graphviz version 14.1.2 (0)
 -->
<!-- Title: G Pages: 1 -->
<svg width="863pt" height="875pt"
 viewBox="0.00 0.00 863.00 875.00" xmlns="http://www.w3.org/2000/svg" xmlns:xlink="http://www.w3.org/1999/xlink">
<g id="graph0" class="graph" transform="scale(1 1) rotate(0) translate(4 871.12)">
<title>G</title>
<polygon fill="white" stroke="none" points="-4,4 -4,-871.12 858.75,-871.12 858.75,4 -4,4"/>
<!-- Spanner -->
<g id="node1" class="node">
<title>Spanner</title>
<path fill="lightgrey" stroke="lightgrey" d="M637.88,-862C637.88,-864.83 612.27,-867.12 580.75,-867.12 549.23,-867.12 523.62,-864.83 523.62,-862 523.62,-862 523.62,-815.88 523.62,-815.88 523.62,-813.05 549.23,-810.75 580.75,-810.75 612.27,-810.75 637.88,-813.05 637.88,-815.88 637.88,-815.88 637.88,-862 637.88,-862"/>
<path fill="none" stroke="lightgrey" d="M637.88,-862C637.88,-859.17 612.27,-856.88 580.75,-856.88 549.23,-856.88 523.62,-859.17 523.62,-862"/>
<text xml:space="preserve" text-anchor="middle" x="580.75" y="-842.14" font-family="Times,serif" font-size="14.00">Cloud Spanner</text>
<text xml:space="preserve" text-anchor="middle" x="580.75" y="-825.64" font-family="Times,serif" font-size="14.00">(Change Streams)</text>
</g>
<!-- SpannerIOReader -->
<g id="node6" class="node">
<title>SpannerIOReader</title>
<polygon fill="lightblue" stroke="lightblue" points="651.75,-758.25 509.75,-758.25 509.75,-717.25 651.75,-717.25 651.75,-758.25"/>
<text xml:space="preserve" text-anchor="middle" x="580.75" y="-740.95" font-family="Times,serif" font-size="14.00">SpannerIO</text>
<text xml:space="preserve" text-anchor="middle" x="580.75" y="-724.45" font-family="Times,serif" font-size="14.00">Change Stream Reader</text>
</g>
<!-- Spanner&#45;&gt;SpannerIOReader -->
<g id="edge1" class="edge">
<title>Spanner&#45;&gt;SpannerIOReader</title>
<path fill="none" stroke="black" d="M580.75,-810.31C580.75,-797.76 580.75,-782.85 580.75,-769.9"/>
<polygon fill="black" stroke="black" points="584.25,-770.2 580.75,-760.2 577.25,-770.2 584.25,-770.2"/>
<text xml:space="preserve" text-anchor="middle" x="616.75" y="-779.45" font-family="Times,serif" font-size="14.00"> CDC Events</text>
</g>
<!-- MetadataDb -->
<g id="node2" class="node">
<title>MetadataDb</title>
<path fill="lightgrey" stroke="lightgrey" d="M179.5,-253.62C179.5,-256.45 148.69,-258.75 110.75,-258.75 72.81,-258.75 42,-256.45 42,-253.62 42,-253.62 42,-207.5 42,-207.5 42,-204.67 72.81,-202.38 110.75,-202.38 148.69,-202.38 179.5,-204.67 179.5,-207.5 179.5,-207.5 179.5,-253.62 179.5,-253.62"/>
<path fill="none" stroke="lightgrey" d="M179.5,-253.62C179.5,-250.8 148.69,-248.5 110.75,-248.5 72.81,-248.5 42,-250.8 42,-253.62"/>
<text xml:space="preserve" text-anchor="middle" x="110.75" y="-233.76" font-family="Times,serif" font-size="14.00">Spanner Metadata DB</text>
<text xml:space="preserve" text-anchor="middle" x="110.75" y="-217.26" font-family="Times,serif" font-size="14.00">(Shadow Tables)</text>
</g>
<!-- InformationSchema -->
<g id="node7" class="node">
<title>InformationSchema</title>
<polygon fill="lightblue" stroke="lightblue" points="221.5,-147.38 0,-147.38 0,-111.38 221.5,-111.38 221.5,-147.38"/>
<text xml:space="preserve" text-anchor="middle" x="110.75" y="-124.33" font-family="Times,serif" font-size="14.00">SpannerInformationSchemaProcessor</text>
</g>
<!-- MetadataDb&#45;&gt;InformationSchema -->
<g id="edge2" class="edge">
<title>MetadataDb&#45;&gt;InformationSchema</title>
<path fill="none" stroke="black" d="M110.75,-201.93C110.75,-188.46 110.75,-172.27 110.75,-158.7"/>
<polygon fill="black" stroke="black" points="114.25,-159.09 110.75,-149.09 107.25,-159.09 114.25,-159.09"/>
<text xml:space="preserve" text-anchor="middle" x="157.25" y="-171.07" font-family="Times,serif" font-size="14.00"> DDL / Metadata</text>
</g>
<!-- SourceDb -->
<g id="node3" class="node">
<title>SourceDb</title>
<path fill="lightyellow" stroke="lightyellow" d="M522,-51.25C522,-54.08 474.38,-56.38 415.75,-56.38 357.12,-56.38 309.5,-54.08 309.5,-51.25 309.5,-51.25 309.5,-5.12 309.5,-5.12 309.5,-2.3 357.12,0 415.75,0 474.38,0 522,-2.3 522,-5.12 522,-5.12 522,-51.25 522,-51.25"/>
<path fill="none" stroke="lightyellow" d="M522,-51.25C522,-48.42 474.38,-46.12 415.75,-46.12 357.12,-46.12 309.5,-48.42 309.5,-51.25"/>
<text xml:space="preserve" text-anchor="middle" x="415.75" y="-31.39" font-family="Times,serif" font-size="14.00">Source Database</text>
<text xml:space="preserve" text-anchor="middle" x="415.75" y="-14.89" font-family="Times,serif" font-size="14.00">(MySQL / PostgreSQL / Cassandra)</text>
</g>
<!-- DLQ -->
<g id="node4" class="node">
<title>DLQ</title>
<path fill="lightpink" stroke="lightpink" d="M662.5,-253.62C662.5,-256.45 629,-258.75 587.75,-258.75 546.5,-258.75 513,-256.45 513,-253.62 513,-253.62 513,-207.5 513,-207.5 513,-204.67 546.5,-202.38 587.75,-202.38 629,-202.38 662.5,-204.67 662.5,-207.5 662.5,-207.5 662.5,-253.62 662.5,-253.62"/>
<path fill="none" stroke="lightpink" d="M662.5,-253.62C662.5,-250.8 629,-248.5 587.75,-248.5 546.5,-248.5 513,-250.8 513,-253.62"/>
<text xml:space="preserve" text-anchor="middle" x="587.75" y="-233.76" font-family="Times,serif" font-size="14.00">GCS Dead Letter Queue</text>
<text xml:space="preserve" text-anchor="middle" x="587.75" y="-217.26" font-family="Times,serif" font-size="14.00">(DLQ)</text>
</g>
<!-- DLQReconsumer -->
<g id="node16" class="node">
<title>DLQReconsumer</title>
<polygon fill="lightblue" stroke="lightblue" points="764.75,-149.88 616.75,-149.88 616.75,-108.88 764.75,-108.88 764.75,-149.88"/>
<text xml:space="preserve" text-anchor="middle" x="690.75" y="-132.57" font-family="Times,serif" font-size="14.00">DLQ Reconsumer</text>
<text xml:space="preserve" text-anchor="middle" x="690.75" y="-116.08" font-family="Times,serif" font-size="14.00">(PubSub or Continuous)</text>
</g>
<!-- DLQ&#45;&gt;DLQReconsumer -->
<g id="edge8" class="edge">
<title>DLQ&#45;&gt;DLQReconsumer</title>
<path fill="none" stroke="black" d="M616.44,-201.93C630.67,-188.23 647.82,-171.72 662.05,-158.01"/>
<polygon fill="black" stroke="black" points="664.18,-160.82 668.96,-151.36 659.33,-155.78 664.18,-160.82"/>
</g>
<!-- PubSub -->
<g id="node5" class="node">
<title>PubSub</title>
<polygon fill="lightblue" stroke="lightblue" points="854.75,-248.56 718.75,-248.56 718.75,-212.56 854.75,-212.56 854.75,-248.56"/>
<text xml:space="preserve" text-anchor="middle" x="786.75" y="-225.51" font-family="Times,serif" font-size="14.00">Pub/Sub (DLQ Retry)</text>
</g>
<!-- PubSub&#45;&gt;DLQReconsumer -->
<g id="edge7" class="edge">
<title>PubSub&#45;&gt;DLQReconsumer</title>
<path fill="none" stroke="black" d="M770.03,-212.29C755.62,-197.4 734.57,-175.64 717.77,-158.29"/>
<polygon fill="black" stroke="black" points="720.44,-156.02 710.97,-151.27 715.41,-160.89 720.44,-156.02"/>
</g>
<!-- Reshuffle -->
<g id="node10" class="node">
<title>Reshuffle</title>
<polygon fill="lightblue" stroke="lightblue" points="629.62,-680.25 531.88,-680.25 531.88,-639.25 629.62,-639.25 629.62,-680.25"/>
<text xml:space="preserve" text-anchor="middle" x="580.75" y="-662.95" font-family="Times,serif" font-size="14.00">Reshuffle</text>
<text xml:space="preserve" text-anchor="middle" x="580.75" y="-646.45" font-family="Times,serif" font-size="14.00">(Random Key)</text>
</g>
<!-- SpannerIOReader&#45;&gt;Reshuffle -->
<g id="edge3" class="edge">
<title>SpannerIOReader&#45;&gt;Reshuffle</title>
<path fill="none" stroke="black" d="M580.75,-716.78C580.75,-709.19 580.75,-700.35 580.75,-691.96"/>
<polygon fill="black" stroke="black" points="584.25,-692.1 580.75,-682.1 577.25,-692.1 584.25,-692.1"/>
</g>
<!-- Filter -->
<g id="node8" class="node">
<title>Filter</title>
<polygon fill="lightblue" stroke="lightblue" points="661.88,-602.25 499.62,-602.25 499.62,-561.25 661.88,-561.25 661.88,-602.25"/>
<text xml:space="preserve" text-anchor="middle" x="580.75" y="-584.95" font-family="Times,serif" font-size="14.00">FilterRecordsFn</text>
<text xml:space="preserve" text-anchor="middle" x="580.75" y="-568.45" font-family="Times,serif" font-size="14.00">(Forward Migration Filter)</text>
</g>
<!-- Preprocess -->
<g id="node9" class="node">
<title>Preprocess</title>
<polygon fill="lightblue" stroke="lightblue" points="647.25,-524.25 514.25,-524.25 514.25,-488.25 647.25,-488.25 647.25,-524.25"/>
<text xml:space="preserve" text-anchor="middle" x="580.75" y="-501.2" font-family="Times,serif" font-size="14.00">PreprocessRecordsFn</text>
</g>
<!-- Filter&#45;&gt;Preprocess -->
<g id="edge5" class="edge">
<title>Filter&#45;&gt;Preprocess</title>
<path fill="none" stroke="black" d="M580.75,-561.05C580.75,-553.31 580.75,-544.26 580.75,-535.82"/>
<polygon fill="black" stroke="black" points="584.25,-536.01 580.75,-526.01 577.25,-536.01 584.25,-536.01"/>
</g>
<!-- SourceWriter -->
<g id="node11" class="node">
<title>SourceWriter</title>
<polygon fill="lightblue" stroke="lightblue" points="544,-435.75 397.5,-435.75 397.5,-399.75 544,-399.75 544,-435.75"/>
<text xml:space="preserve" text-anchor="middle" x="470.75" y="-412.7" font-family="Times,serif" font-size="14.00">SourceWriterTransform</text>
</g>
<!-- Preprocess&#45;&gt;SourceWriter -->
<g id="edge9" class="edge">
<title>Preprocess&#45;&gt;SourceWriter</title>
<path fill="none" stroke="black" d="M513.8,-497.43C497.65,-492.25 482.15,-483.83 472,-470.25 467.18,-463.8 465.59,-455.52 465.57,-447.49"/>
<polygon fill="black" stroke="black" points="469.05,-447.9 466.33,-437.66 462.07,-447.36 469.05,-447.9"/>
<text xml:space="preserve" text-anchor="middle" x="574.38" y="-456.95" font-family="Times,serif" font-size="14.00"> TrimmedShardedDataChangeRecord</text>
</g>
<!-- Reshuffle&#45;&gt;Filter -->
<g id="edge4" class="edge">
<title>Reshuffle&#45;&gt;Filter</title>
<path fill="none" stroke="black" d="M580.75,-638.78C580.75,-631.19 580.75,-622.35 580.75,-613.96"/>
<polygon fill="black" stroke="black" points="584.25,-614.1 580.75,-604.1 577.25,-614.1 584.25,-614.1"/>
</g>
<!-- Processor -->
<g id="node12" class="node">
<title>Processor</title>
<polygon fill="lightblue" stroke="lightblue" points="486.75,-347.25 350.75,-347.25 350.75,-311.25 486.75,-311.25 486.75,-347.25"/>
<text xml:space="preserve" text-anchor="middle" x="418.75" y="-324.2" font-family="Times,serif" font-size="14.00">InputRecordProcessor</text>
</g>
<!-- SourceWriter&#45;&gt;Processor -->
<g id="edge10" class="edge">
<title>SourceWriter&#45;&gt;Processor</title>
<path fill="none" stroke="black" d="M460.48,-399.66C453.19,-387.54 443.26,-371.02 434.92,-357.14"/>
<polygon fill="black" stroke="black" points="438.11,-355.66 429.96,-348.9 432.11,-359.27 438.11,-355.66"/>
</g>
<!-- DLQWriter -->
<g id="node15" class="node">
<title>DLQWriter</title>
<polygon fill="lightblue" stroke="lightblue" points="646.88,-347.25 514.62,-347.25 514.62,-311.25 646.88,-311.25 646.88,-347.25"/>
<text xml:space="preserve" text-anchor="middle" x="580.75" y="-324.2" font-family="Times,serif" font-size="14.00">DLQWriteTransform</text>
</g>
<!-- SourceWriter&#45;&gt;DLQWriter -->
<g id="edge15" class="edge">
<title>SourceWriter&#45;&gt;DLQWriter</title>
<path fill="none" stroke="black" d="M492.75,-399.45C509.08,-386.61 531.59,-368.91 549.75,-354.63"/>
<polygon fill="black" stroke="black" points="551.91,-357.38 557.6,-348.45 547.58,-351.88 551.91,-357.38"/>
<text xml:space="preserve" text-anchor="middle" x="589.98" y="-368.45" font-family="Times,serif" font-size="14.00"> Errors / Exceptions</text>
</g>
<!-- Processor&#45;&gt;MetadataDb -->
<g id="edge12" class="edge">
<title>Processor&#45;&gt;MetadataDb</title>
<path fill="none" stroke="black" d="M350.6,-324.62C267.42,-319.54 135.74,-309.1 119.5,-293.25 113.31,-287.21 110.13,-278.92 108.69,-270.39"/>
<polygon fill="black" stroke="black" points="112.2,-270.34 107.82,-260.69 105.23,-270.96 112.2,-270.34"/>
<text xml:space="preserve" text-anchor="middle" x="266.12" y="-279.95" font-family="Times,serif" font-size="14.00"> Check/Update Shadow Table (processed_commit_ts)</text>
</g>
<!-- DMLGenerator -->
<g id="node13" class="node">
<title>DMLGenerator</title>
<polygon fill="lightblue" stroke="lightblue" points="494.62,-251.06 336.88,-251.06 336.88,-210.06 494.62,-210.06 494.62,-251.06"/>
<text xml:space="preserve" text-anchor="middle" x="415.75" y="-233.76" font-family="Times,serif" font-size="14.00">DMLGenerator</text>
<text xml:space="preserve" text-anchor="middle" x="415.75" y="-217.26" font-family="Times,serif" font-size="14.00">(MySQL, PG, Cassandra)</text>
</g>
<!-- Processor&#45;&gt;DMLGenerator -->
<g id="edge11" class="edge">
<title>Processor&#45;&gt;DMLGenerator</title>
<path fill="none" stroke="black" d="M418.21,-310.96C417.8,-297.5 417.21,-278.47 416.71,-262.41"/>
<polygon fill="black" stroke="black" points="420.22,-262.77 416.41,-252.88 413.22,-262.98 420.22,-262.77"/>
</g>
<!-- DAO -->
<g id="node14" class="node">
<title>DAO</title>
<polygon fill="lightblue" stroke="lightblue" points="494.62,-149.88 336.88,-149.88 336.88,-108.88 494.62,-108.88 494.62,-149.88"/>
<text xml:space="preserve" text-anchor="middle" x="415.75" y="-132.57" font-family="Times,serif" font-size="14.00">Source DAOs</text>
<text xml:space="preserve" text-anchor="middle" x="415.75" y="-116.08" font-family="Times,serif" font-size="14.00">(JdbcDao, CassandraDao)</text>
</g>
<!-- DMLGenerator&#45;&gt;DAO -->
<g id="edge13" class="edge">
<title>DMLGenerator&#45;&gt;DAO</title>
<path fill="none" stroke="black" d="M415.75,-209.97C415.75,-196.2 415.75,-177.49 415.75,-161.67"/>
<polygon fill="black" stroke="black" points="419.25,-161.78 415.75,-151.78 412.25,-161.78 419.25,-161.78"/>
</g>
<!-- DAO&#45;&gt;SourceDb -->
<g id="edge14" class="edge">
<title>DAO&#45;&gt;SourceDb</title>
<path fill="none" stroke="black" d="M415.75,-108.78C415.75,-97.13 415.75,-81.96 415.75,-67.98"/>
<polygon fill="black" stroke="black" points="419.25,-68.14 415.75,-58.14 412.25,-68.14 419.25,-68.14"/>
<text xml:space="preserve" text-anchor="middle" x="463.75" y="-77.58" font-family="Times,serif" font-size="14.00"> Apply Mutations</text>
</g>
<!-- DLQWriter&#45;&gt;DLQ -->
<g id="edge16" class="edge">
<title>DLQWriter&#45;&gt;DLQ</title>
<path fill="none" stroke="black" d="M582,-310.96C582.82,-299.68 583.92,-284.47 584.94,-270.39"/>
<polygon fill="black" stroke="black" points="588.43,-270.67 585.66,-260.44 581.45,-270.16 588.43,-270.67"/>
</g>
<!-- DLQReconsumer&#45;&gt;Preprocess -->
<g id="edge6" class="edge">
<title>DLQReconsumer&#45;&gt;Preprocess</title>
<path fill="none" stroke="black" d="M690.75,-150.14C690.75,-170.15 690.75,-202.01 690.75,-229.56 690.75,-418.75 690.75,-418.75 690.75,-418.75 690.75,-442.47 692.8,-452.79 676.75,-470.25 671.22,-476.27 664.57,-481.25 657.39,-485.38"/>
<polygon fill="black" stroke="black" points="655.99,-482.16 648.66,-489.81 659.16,-488.4 655.99,-482.16"/>
<text xml:space="preserve" text-anchor="middle" x="754.88" y="-324.2" font-family="Times,serif" font-size="14.00"> Retryable DLQ Events</text>
</g>
</g>
</svg>
