<?xml version="1.0" encoding="UTF-8" standalone="no"?>
<!DOCTYPE svg PUBLIC "-//W3C//DTD SVG 1.1//EN"
 "http://www.w3.org/Graphics/SVG/1.1/DTD/svg11.dtd">
<!-- Generated by graphviz version 14.1.2 (0)
 -->
<!-- Title: Architecture Pages: 1 -->
<svg width="986pt" height="705pt"
 viewBox="0.00 0.00 986.00 705.00" xmlns="http://www.w3.org/2000/svg" xmlns:xlink="http://www.w3.org/1999/xlink">
<g id="graph0" class="graph" transform="scale(1 1) rotate(0) translate(4 700.88)">
<title>Architecture</title>
<polygon fill="white" stroke="none" points="-4,4 -4,-700.88 982,-700.88 982,4 -4,4"/>
<g id="clust1" class="cluster">
<title>cluster_dataflow</title>
<polygon fill="none" stroke="gray" stroke-dasharray="5,2" points="8,-75.91 8,-523.56 540,-523.56 540,-75.91 8,-75.91"/>
<text xml:space="preserve" text-anchor="middle" x="274" y="-506.26" font-family="Helvetica,sans-Serif" font-weight="bold" font-size="14.00">Cloud Dataflow (DataStreamToSpanner)</text>
</g>
<!-- Datastream -->
<g id="node1" class="node">
<title>Datastream</title>
<path fill="lightblue" stroke="black" d="M412.25,-691.94C412.25,-694.66 386.14,-696.88 354,-696.88 321.86,-696.88 295.75,-694.66 295.75,-691.94 295.75,-691.94 295.75,-647.5 295.75,-647.5 295.75,-644.78 321.86,-642.56 354,-642.56 386.14,-642.56 412.25,-644.78 412.25,-647.5 412.25,-647.5 412.25,-691.94 412.25,-691.94"/>
<path fill="none" stroke="black" d="M412.25,-691.94C412.25,-689.21 386.14,-687 354,-687 321.86,-687 295.75,-689.21 295.75,-691.94"/>
<text xml:space="preserve" text-anchor="middle" x="354" y="-672.17" font-family="Helvetica,sans-Serif" font-size="14.00">Source DB</text>
<text xml:space="preserve" text-anchor="middle" x="354" y="-656.42" font-family="Helvetica,sans-Serif" font-size="14.00">(via Datastream)</text>
</g>
<!-- GCS -->
<g id="node2" class="node">
<title>GCS</title>
<polygon fill="lightblue" stroke="black" points="429.12,-590.06 426.12,-594.06 405.12,-594.06 402.12,-590.06 278.88,-590.06 278.88,-550.56 429.12,-550.56 429.12,-590.06"/>
<text xml:space="preserve" text-anchor="middle" x="354" y="-572.76" font-family="Helvetica,sans-Serif" font-size="14.00">Google Cloud Storage</text>
<text xml:space="preserve" text-anchor="middle" x="354" y="-557.01" font-family="Helvetica,sans-Serif" font-size="14.00">(AVRO/JSON)</text>
</g>
<!-- Datastream&#45;&gt;GCS -->
<g id="edge1" class="edge">
<title>Datastream&#45;&gt;GCS</title>
<path fill="none" stroke="black" d="M354,-642.1C354,-629.6 354,-614.62 354,-601.68"/>
<polygon fill="black" stroke="black" points="357.5,-602 354,-592 350.5,-602 357.5,-602"/>
<text xml:space="preserve" text-anchor="middle" x="396.75" y="-611.26" font-family="Times,serif" font-size="14.00"> Change Events</text>
</g>
<!-- ReadDataStream -->
<g id="node6" class="node">
<title>ReadDataStream</title>
<polygon fill="lightblue" stroke="black" points="405.88,-491.81 302.12,-491.81 302.12,-452.31 405.88,-452.31 405.88,-491.81"/>
<text xml:space="preserve" text-anchor="middle" x="354" y="-474.51" font-family="Helvetica,sans-Serif" font-size="14.00">DataStreamIO</text>
<text xml:space="preserve" text-anchor="middle" x="354" y="-458.76" font-family="Helvetica,sans-Serif" font-size="14.00">(Read Events)</text>
</g>
<!-- GCS&#45;&gt;ReadDataStream -->
<g id="edge2" class="edge">
<title>GCS&#45;&gt;ReadDataStream</title>
<path fill="none" stroke="black" d="M354,-550.3C354,-536.85 354,-518.55 354,-503.13"/>
<polygon fill="black" stroke="black" points="357.5,-503.55 354,-493.55 350.5,-503.55 357.5,-503.55"/>
</g>
<!-- Spanner -->
<g id="node3" class="node">
<title>Spanner</title>
<path fill="lightblue" stroke="black" d="M872.25,-125.88C872.25,-128.6 827.32,-130.81 772,-130.81 716.68,-130.81 671.75,-128.6 671.75,-125.88 671.75,-125.88 671.75,-81.44 671.75,-81.44 671.75,-78.71 716.68,-76.5 772,-76.5 827.32,-76.5 872.25,-78.71 872.25,-81.44 872.25,-81.44 872.25,-125.88 872.25,-125.88"/>
<path fill="none" stroke="black" d="M872.25,-125.88C872.25,-123.15 827.32,-120.94 772,-120.94 716.68,-120.94 671.75,-123.15 671.75,-125.88"/>
<text xml:space="preserve" text-anchor="middle" x="772" y="-106.11" font-family="Helvetica,sans-Serif" font-size="14.00">Cloud Spanner</text>
<text xml:space="preserve" text-anchor="middle" x="772" y="-90.36" font-family="Helvetica,sans-Serif" font-size="14.00">(Destination &amp; Shadow Tables)</text>
</g>
<!-- ProcessSchema -->
<g id="node7" class="node">
<title>ProcessSchema</title>
<polygon fill="lightblue" stroke="black" points="503.38,-399.81 312.62,-399.81 312.62,-360.31 503.38,-360.31 503.38,-399.81"/>
<text xml:space="preserve" text-anchor="middle" x="408" y="-382.51" font-family="Helvetica,sans-Serif" font-size="14.00">Process Information Schema</text>
<text xml:space="preserve" text-anchor="middle" x="408" y="-366.76" font-family="Helvetica,sans-Serif" font-size="14.00">(Read DDL)</text>
</g>
<!-- Spanner&#45;&gt;ProcessSchema -->
<g id="edge3" class="edge">
<title>Spanner&#45;&gt;ProcessSchema</title>
<path fill="none" stroke="black" d="M747.67,-131.23C708.78,-172.63 628.96,-253.44 550,-307.81 523.33,-326.18 491.25,-342.69 464.34,-355.18"/>
<polygon fill="black" stroke="black" points="462.94,-351.97 455.29,-359.3 465.85,-358.34 462.94,-351.97"/>
<text xml:space="preserve" text-anchor="middle" x="652.87" y="-240.51" font-family="Times,serif" font-size="14.00"> DDL</text>
</g>
<!-- DLQ -->
<g id="node4" class="node">
<title>DLQ</title>
<polygon fill="lightblue" stroke="black" points="337.75,-39.5 334.75,-43.5 313.75,-43.5 310.75,-39.5 206.25,-39.5 206.25,0 337.75,0 337.75,-39.5"/>
<text xml:space="preserve" text-anchor="middle" x="272" y="-22.2" font-family="Helvetica,sans-Serif" font-size="14.00">Dead Letter Queue</text>
<text xml:space="preserve" text-anchor="middle" x="272" y="-6.45" font-family="Helvetica,sans-Serif" font-size="14.00">(GCS)</text>
</g>
<!-- ReadDLQ -->
<g id="node8" class="node">
<title>ReadDLQ</title>
<polygon fill="lightblue" stroke="black" points="283.62,-491.81 22.38,-491.81 22.38,-452.31 283.62,-452.31 283.62,-491.81"/>
<text xml:space="preserve" text-anchor="middle" x="153" y="-474.51" font-family="Helvetica,sans-Serif" font-size="14.00">FileBasedDeadLetterQueueReconsumer</text>
<text xml:space="preserve" text-anchor="middle" x="153" y="-458.76" font-family="Helvetica,sans-Serif" font-size="14.00">(Read from DLQ)</text>
</g>
<!-- DLQ&#45;&gt;ReadDLQ -->
<g id="edge6" class="edge">
<title>DLQ&#45;&gt;ReadDLQ</title>
<path fill="none" stroke="black" d="M338.11,-19.89C476.2,-19.19 790,-23.59 881,-75.91 893.64,-83.17 900,-88.07 900,-102.66 900,-381.06 900,-381.06 900,-381.06 900,-446.25 402.72,-444.14 295.14,-452.39"/>
<polygon fill="black" stroke="black" points="294.9,-448.89 285.28,-453.33 295.57,-455.86 294.9,-448.89"/>
<text xml:space="preserve" text-anchor="middle" x="939" y="-240.51" font-family="Times,serif" font-size="14.00"> Failed Events</text>
</g>
<!-- FilteredEventsGCS -->
<g id="node5" class="node">
<title>FilteredEventsGCS</title>
<polygon fill="lightblue" stroke="black" points="654,-123.41 651,-127.41 630,-127.41 627,-123.41 548,-123.41 548,-83.91 654,-83.91 654,-123.41"/>
<text xml:space="preserve" text-anchor="middle" x="601" y="-106.11" font-family="Helvetica,sans-Serif" font-size="14.00">Filtered Events</text>
<text xml:space="preserve" text-anchor="middle" x="601" y="-90.36" font-family="Helvetica,sans-Serif" font-size="14.00">(GCS)</text>
</g>
<!-- Reshuffle -->
<g id="node9" class="node">
<title>Reshuffle</title>
<polygon fill="lightblue" stroke="black" points="222.88,-399.81 119.12,-399.81 119.12,-360.31 222.88,-360.31 222.88,-399.81"/>
<text xml:space="preserve" text-anchor="middle" x="171" y="-382.51" font-family="Helvetica,sans-Serif" font-size="14.00">Reshuffle</text>
<text xml:space="preserve" text-anchor="middle" x="171" y="-366.76" font-family="Helvetica,sans-Serif" font-size="14.00">(Random Key)</text>
</g>
<!-- ReadDataStream&#45;&gt;Reshuffle -->
<g id="edge7" class="edge">
<title>ReadDataStream&#45;&gt;Reshuffle</title>
<path fill="none" stroke="black" d="M324.25,-451.85C307.02,-441.14 284.71,-427.95 264,-417.81 254.39,-413.11 244.03,-408.54 233.82,-404.32"/>
<polygon fill="black" stroke="black" points="235.27,-401.13 224.68,-400.62 232.64,-407.61 235.27,-401.13"/>
</g>
<!-- TransformEvents -->
<g id="node10" class="node">
<title>TransformEvents</title>
<polygon fill="lightblue" stroke="black" points="355.75,-307.81 152.25,-307.81 152.25,-271.81 355.75,-271.81 355.75,-307.81"/>
<text xml:space="preserve" text-anchor="middle" x="254" y="-284.39" font-family="Helvetica,sans-Serif" font-size="14.00">Apply Transformation to events</text>
</g>
<!-- ProcessSchema&#45;&gt;TransformEvents -->
<g id="edge4" class="edge">
<title>ProcessSchema&#45;&gt;TransformEvents</title>
<path fill="none" stroke="black" stroke-dasharray="1,5" d="M312.33,-361.71C300.38,-356.77 288.97,-350.44 279.25,-342.31 271.84,-336.11 266.42,-327.22 262.54,-318.55"/>
<polygon fill="black" stroke="black" points="265.85,-317.4 258.98,-309.34 259.32,-319.93 265.85,-317.4"/>
<text xml:space="preserve" text-anchor="middle" x="341.12" y="-329.01" font-family="Times,serif" font-size="14.00"> SideInput: DDL View</text>
</g>
<!-- WriteSpanner -->
<g id="node11" class="node">
<title>WriteSpanner</title>
<polygon fill="lightblue" stroke="black" points="371.88,-219.31 172.12,-219.31 172.12,-183.31 371.88,-183.31 371.88,-219.31"/>
<text xml:space="preserve" text-anchor="middle" x="272" y="-195.89" font-family="Helvetica,sans-Serif" font-size="14.00">Write events to Cloud Spanner</text>
</g>
<!-- ProcessSchema&#45;&gt;WriteSpanner -->
<g id="edge5" class="edge">
<title>ProcessSchema&#45;&gt;WriteSpanner</title>
<path fill="none" stroke="black" stroke-dasharray="1,5" d="M413.73,-360.14C421.46,-330.48 431.22,-272.76 403,-237.31 398.82,-232.06 390,-227.41 378.81,-223.36"/>
<polygon fill="black" stroke="black" points="379.97,-220.05 369.38,-220.27 377.79,-226.71 379.97,-220.05"/>
<text xml:space="preserve" text-anchor="middle" x="483.73" y="-284.76" font-family="Times,serif" font-size="14.00"> SideInput: DDL View</text>
</g>
<!-- ReadDLQ&#45;&gt;Reshuffle -->
<g id="edge8" class="edge">
<title>ReadDLQ&#45;&gt;Reshuffle</title>
<path fill="none" stroke="black" d="M156.82,-451.98C159.18,-440.16 162.27,-424.74 164.95,-411.29"/>
<polygon fill="black" stroke="black" points="168.36,-412.1 166.89,-401.61 161.5,-410.73 168.36,-412.1"/>
<text xml:space="preserve" text-anchor="middle" x="211.99" y="-421.01" font-family="Times,serif" font-size="14.00"> Retryable Events</text>
</g>
<!-- WriteDLQSevere -->
<g id="node14" class="node">
<title>WriteDLQSevere</title>
<polygon fill="lightblue" stroke="black" points="176.12,-123.41 31.88,-123.41 31.88,-83.91 176.12,-83.91 176.12,-123.41"/>
<text xml:space="preserve" text-anchor="middle" x="104" y="-106.11" font-family="Helvetica,sans-Serif" font-size="14.00">Write To Severe DLQ</text>
<text xml:space="preserve" text-anchor="middle" x="104" y="-90.36" font-family="Helvetica,sans-Serif" font-size="14.00">(Severe Errors)</text>
</g>
<!-- ReadDLQ&#45;&gt;WriteDLQSevere -->
<g id="edge9" class="edge">
<title>ReadDLQ&#45;&gt;WriteDLQSevere</title>
<path fill="none" stroke="black" d="M134.47,-451.99C108.15,-423.43 61.18,-366.61 43.25,-307.81 22.55,-239.93 23.79,-210.99 58,-148.81 61.43,-142.57 66.04,-136.68 71.02,-131.36"/>
<polygon fill="black" stroke="black" points="73.27,-134.06 77.96,-124.55 68.37,-129.06 73.27,-134.06"/>
<text xml:space="preserve" text-anchor="middle" x="93.12" y="-284.76" font-family="Times,serif" font-size="14.00"> Permanent Errors</text>
</g>
<!-- Reshuffle&#45;&gt;TransformEvents -->
<g id="edge10" class="edge">
<title>Reshuffle&#45;&gt;TransformEvents</title>
<path fill="none" stroke="black" d="M166.57,-360.05C165.13,-349.15 165.33,-335.7 172,-325.81 174.85,-321.58 178.33,-317.86 182.22,-314.59"/>
<polygon fill="black" stroke="black" points="183.97,-317.64 190.09,-308.99 179.91,-311.93 183.97,-317.64"/>
<text xml:space="preserve" text-anchor="middle" x="214" y="-329.01" font-family="Times,serif" font-size="14.00"> JSON Records</text>
</g>
<!-- TransformEvents&#45;&gt;WriteSpanner -->
<g id="edge13" class="edge">
<title>TransformEvents&#45;&gt;WriteSpanner</title>
<path fill="none" stroke="black" d="M199.71,-271.5C182.52,-262.99 170.23,-251.49 180,-237.31 182.92,-233.08 186.42,-229.36 190.32,-226.09"/>
<polygon fill="black" stroke="black" points="192.08,-229.14 198.22,-220.5 188.04,-223.43 192.08,-229.14"/>
<text xml:space="preserve" text-anchor="middle" x="237" y="-240.51" font-family="Times,serif" font-size="14.00"> Transformed Events</text>
</g>
<!-- WriteFiltered -->
<g id="node12" class="node">
<title>WriteFiltered</title>
<polygon fill="lightblue" stroke="black" points="531.62,-219.31 390.38,-219.31 390.38,-183.31 531.62,-183.31 531.62,-219.31"/>
<text xml:space="preserve" text-anchor="middle" x="461" y="-195.89" font-family="Helvetica,sans-Serif" font-size="14.00">Write Filtered Events</text>
</g>
<!-- TransformEvents&#45;&gt;WriteFiltered -->
<g id="edge11" class="edge">
<title>TransformEvents&#45;&gt;WriteFiltered</title>
<path fill="none" stroke="black" d="M295.39,-271.52C328,-257.89 373.67,-238.81 408.79,-224.13"/>
<polygon fill="black" stroke="black" points="410.05,-227.4 417.93,-220.31 407.35,-220.94 410.05,-227.4"/>
<text xml:space="preserve" text-anchor="middle" x="419.17" y="-240.51" font-family="Times,serif" font-size="14.00"> Filtered Events</text>
</g>
<!-- TransformEvents&#45;&gt;WriteDLQSevere -->
<g id="edge14" class="edge">
<title>TransformEvents&#45;&gt;WriteDLQSevere</title>
<path fill="none" stroke="black" d="M151.85,-275.45C118,-265.61 83.76,-248.62 63.25,-219.31 44.75,-192.88 62.83,-157.18 80.42,-132.67"/>
<polygon fill="black" stroke="black" points="83.17,-134.85 86.41,-124.76 77.58,-130.63 83.17,-134.85"/>
<text xml:space="preserve" text-anchor="middle" x="113.12" y="-196.26" font-family="Times,serif" font-size="14.00"> Permanent Errors</text>
</g>
<!-- WriteSpanner&#45;&gt;Spanner -->
<g id="edge15" class="edge">
<title>WriteSpanner&#45;&gt;Spanner</title>
<path fill="none" stroke="black" d="M372.36,-184.17C448.83,-171.47 556.94,-152.68 660.42,-131.31"/>
<polygon fill="black" stroke="black" points="660.82,-134.8 669.9,-129.34 659.4,-127.95 660.82,-134.8"/>
<text xml:space="preserve" text-anchor="middle" x="620.44" y="-152.01" font-family="Times,serif" font-size="14.00"> Spanner Mutations</text>
</g>
<!-- WriteDLQRetry -->
<g id="node13" class="node">
<title>WriteDLQRetry</title>
<polygon fill="lightblue" stroke="black" points="333.62,-123.41 210.38,-123.41 210.38,-83.91 333.62,-83.91 333.62,-123.41"/>
<text xml:space="preserve" text-anchor="middle" x="272" y="-106.11" font-family="Helvetica,sans-Serif" font-size="14.00">Write To DLQ</text>
<text xml:space="preserve" text-anchor="middle" x="272" y="-90.36" font-family="Helvetica,sans-Serif" font-size="14.00">(Retryable Errors)</text>
</g>
<!-- WriteSpanner&#45;&gt;WriteDLQRetry -->
<g id="edge16" class="edge">
<title>WriteSpanner&#45;&gt;WriteDLQRetry</title>
<path fill="none" stroke="black" d="M272,-183.21C272,-169.85 272,-150.94 272,-135.02"/>
<polygon fill="black" stroke="black" points="275.5,-135.09 272,-125.09 268.5,-135.09 275.5,-135.09"/>
<text xml:space="preserve" text-anchor="middle" x="318.88" y="-152.01" font-family="Times,serif" font-size="14.00"> Retryable Errors</text>
</g>
<!-- WriteSpanner&#45;&gt;WriteDLQSevere -->
<g id="edge17" class="edge">
<title>WriteSpanner&#45;&gt;WriteDLQSevere</title>
<path fill="none" stroke="black" d="M206.16,-182.89C193.14,-178.13 179.9,-172.31 168.25,-165.31 153.33,-156.35 139.02,-143.42 127.7,-131.79"/>
<polygon fill="black" stroke="black" points="130.46,-129.62 121.06,-124.74 125.36,-134.42 130.46,-129.62"/>
<text xml:space="preserve" text-anchor="middle" x="218.12" y="-152.01" font-family="Times,serif" font-size="14.00"> Permanent Errors</text>
</g>
<!-- WriteFiltered&#45;&gt;FilteredEventsGCS -->
<g id="edge12" class="edge">
<title>WriteFiltered&#45;&gt;FilteredEventsGCS</title>
<path fill="none" stroke="black" d="M512.59,-182.94C523.76,-178.07 535.16,-172.19 545,-165.31 557.98,-156.24 570.18,-143.7 579.86,-132.38"/>
<polygon fill="black" stroke="black" points="582.44,-134.76 586.09,-124.82 577.03,-130.31 582.44,-134.76"/>
</g>
<!-- WriteDLQRetry&#45;&gt;DLQ -->
<g id="edge18" class="edge">
<title>WriteDLQRetry&#45;&gt;DLQ</title>
<path fill="none" stroke="black" d="M272,-83.66C272,-74.01 272,-62.06 272,-51.17"/>
<polygon fill="black" stroke="black" points="275.5,-51.44 272,-41.44 268.5,-51.44 275.5,-51.44"/>
</g>
<!-- WriteDLQSevere&#45;&gt;DLQ -->
<g id="edge19" class="edge">
<title>WriteDLQSevere&#45;&gt;DLQ</title>
<path fill="none" stroke="black" d="M143.39,-83.45C167,-71.94 197.24,-57.2 222.46,-44.9"/>
<polygon fill="black" stroke="black" points="223.75,-48.17 231.21,-40.64 220.68,-41.87 223.75,-48.17"/>
</g>
</g>
</svg>
